<svg xmlns="http://www.w3.org/2000/svg" viewBox="0 0 760 475" font-family="Inter, -apple-system, sans-serif">
  <rect width="760" height="475" fill="#FDFAF5"/>
  <circle cx="640" cy="80" r="140" fill="rgba(20,184,166,0.06)"/>
  <circle cx="100" cy="400" r="130" fill="rgba(249,115,22,0.06)"/>

  <g>
    <circle cx="52" cy="48" r="22" fill="#FFFFFF" stroke="#EAE0D2"/>
    <g transform="translate(30,26) scale(0.9167)">
      <path d="M 35.52 13.63 A 15.5 15.5 0 1 0 35.52 34.37" fill="none" stroke="#0EA5A0" stroke-width="4.2" stroke-linecap="round"/>
      <line x1="35.52" y1="13.63" x2="24" y2="24" stroke="#C9BBA9" stroke-width="1.2"/>
      <line x1="35.52" y1="34.37" x2="24" y2="24" stroke="#C9BBA9" stroke-width="1.2"/>
      <circle cx="35.52" cy="13.63" r="3.1" fill="#F5A623"/>
      <circle cx="35.52" cy="13.63" r="1.1" fill="#FFFFFF"/>
      <circle cx="35.52" cy="34.37" r="3.1" fill="#14B8A6"/>
      <circle cx="35.52" cy="34.37" r="1.1" fill="#FFFFFF"/>
      <circle cx="24" cy="24" r="2" fill="#16192A"/>
    </g>
    <text x="82" y="55" font-size="18" font-weight="700" fill="#16192A">Contomatix</text>
  </g>

  <ellipse cx="300" cy="420" rx="150" ry="14" fill="rgba(23,20,44,0.06)"/>

  <!-- two paths: old search results list vs new AI answer -->
  <g>
    <text x="120" y="185" font-size="11" font-weight="700" fill="#8A8371">TRADITIONAL SEARCH</text>
    <rect x="120" y="198" width="220" height="26" rx="6" fill="#FFFFFF" stroke="#EAE0D2"/>
    <rect x="133" y="207" width="120" height="8" rx="4" fill="#0EA5A0"/>
    <rect x="120" y="230" width="220" height="26" rx="6" fill="#FFFFFF" stroke="#EAE0D2"/>
    <rect x="133" y="239" width="150" height="8" rx="4" fill="#D8CBB6"/>
    <rect x="120" y="262" width="220" height="26" rx="6" fill="#FFFFFF" stroke="#EAE0D2"/>
    <rect x="133" y="271" width="100" height="8" rx="4" fill="#D8CBB6"/>
  </g>

  <path d="M355 240 h40" stroke="#C9BBA9" stroke-width="2" fill="none" marker-end="url(#arrow)"/>
  <polygon points="395,235 407,240 395,245" fill="#C9BBA9"/>

  <g>
    <text x="420" y="185" font-size="11" font-weight="700" fill="#0B807C">LLM SEO</text>
    <path d="M420 198 h230 a16 16 0 0 1 16 16 v58 a16 16 0 0 1 -16 16 h-170 l-30 26 v-26 h-30 a16 16 0 0 1 -16 -16 v-58 a16 16 0 0 1 16 -16 Z" fill="#FFFFFF" stroke="#0EA5A0" stroke-width="2.5"/>
    <circle cx="443" cy="222" r="7" fill="#0EA5A0"/>
    <rect x="458" y="217" width="90" height="10" rx="5" fill="#E5F7F1"/>
    <rect x="435" y="242" width="195" height="8" rx="4" fill="#F1EDE3"/>
    <rect x="435" y="257" width="160" height="8" rx="4" fill="#F1EDE3"/>
    <rect x="435" y="277" width="70" height="18" rx="9" fill="#FDF3E2" stroke="#F5A623"/>
    <text x="444" y="290" font-size="9.5" font-weight="700" fill="#B5730E">cited</text>
  </g>

  <!-- person with magnifying glass -->
  <path d="M430 420 C430 350 458 310 485 310 C512 310 540 350 540 420 Z" fill="#0EA5A0"/>
  <circle cx="485" cy="275" r="0" fill="none"/>

  <!-- floating cards -->
  <g>
    <rect x="470" y="325" width="230" height="52" rx="14" fill="#FFFFFF" stroke="#EAE0D2"/>
    <circle cx="496" cy="351" r="12" fill="#E5F7F1"/>
    <path d="M490 351l4 4 8-8" stroke="#0B807C" stroke-width="2.3" fill="none" stroke-linecap="round" stroke-linejoin="round"/>
    <text x="515" y="347" font-size="12.5" font-weight="700" fill="#16192A">Structure over stuffing</text>
    <text x="515" y="364" font-size="11" fill="#8A8371">FAQs, clear answers, headings</text>
  </g>
  <g>
    <rect x="120" y="325" width="230" height="52" rx="14" fill="#FFFFFF" stroke="#EAE0D2"/>
    <circle cx="146" cy="351" r="12" fill="#FDF3E2"/>
    <path d="M146 344v9m0 4v.5" stroke="#F59E0B" stroke-width="2.3" stroke-linecap="round"/>
    <text x="165" y="347" font-size="12.5" font-weight="700" fill="#16192A">Citations, not clicks</text>
    <text x="165" y="364" font-size="11" fill="#8A8371">success looks different now</text>
  </g>

  <text x="60" y="458" font-size="20" font-weight="700" fill="#16192A">What Is LLM SEO?</text>
</svg>
