<svg xmlns="http://www.w3.org/2000/svg" viewBox="0 0 760 475" font-family="Inter, -apple-system, sans-serif">
  <rect width="760" height="475" fill="#FDFAF5"/>
  <circle cx="640" cy="80" r="140" fill="rgba(20,184,166,0.06)"/>
  <circle cx="100" cy="400" r="130" fill="rgba(249,115,22,0.06)"/>

  <g>
    <circle cx="52" cy="48" r="22" fill="#FFFFFF" stroke="#EAE0D2"/>
    <g transform="translate(30,26) scale(0.9167)">
      <path d="M 35.52 13.63 A 15.5 15.5 0 1 0 35.52 34.37" fill="none" stroke="#0EA5A0" stroke-width="4.2" stroke-linecap="round"/>
      <line x1="35.52" y1="13.63" x2="24" y2="24" stroke="#C9BBA9" stroke-width="1.2"/>
      <line x1="35.52" y1="34.37" x2="24" y2="24" stroke="#C9BBA9" stroke-width="1.2"/>
      <circle cx="35.52" cy="13.63" r="3.1" fill="#F5A623"/>
      <circle cx="35.52" cy="13.63" r="1.1" fill="#FFFFFF"/>
      <circle cx="35.52" cy="34.37" r="3.1" fill="#14B8A6"/>
      <circle cx="35.52" cy="34.37" r="1.1" fill="#FFFFFF"/>
      <circle cx="24" cy="24" r="2" fill="#16192A"/>
    </g>
    <text x="82" y="55" font-size="18" font-weight="700" fill="#16192A">Contomatix</text>
  </g>

  <rect x="596" y="34" width="150" height="28" rx="14" fill="#FDF3E2" stroke="#F5A623"/>
  <text x="671" y="52" font-size="11" font-weight="700" fill="#B5730E" text-anchor="middle">TESTED TOOL REVIEW</text>

  <g>
    <rect x="90" y="96" width="330" height="46" rx="23" fill="#FFFFFF" stroke="#EAE0D2" stroke-width="1.5"/>
    <circle cx="116" cy="119" r="7" fill="none" stroke="#8A8371" stroke-width="2.2"/>
    <line x1="121" y1="124" x2="126" y2="129" stroke="#8A8371" stroke-width="2.2" stroke-linecap="round"/>
    <text x="140" y="125" font-size="14" fill="#16192A">free invoice generator no sign up</text>
  </g>

  <!-- invoice card -->
  <g>
    <rect x="90" y="160" width="330" height="190" rx="14" fill="#FFFFFF" stroke="#0EA5A0" stroke-width="2"/>
    <rect x="106" y="176" width="30" height="30" rx="7" fill="#1F3A5F"/>
    <text x="121" y="196" font-size="11" font-weight="800" fill="#FFFFFF" text-anchor="middle">SS</text>
    <text x="146" y="188" font-size="12.5" font-weight="700" fill="#16192A">Sample Studio</text>
    <text x="146" y="202" font-size="10" fill="#8A8371">billing@example.com</text>
    <text x="404" y="190" font-size="15" font-weight="800" fill="#16192A" text-anchor="end">INVOICE</text>
    <text x="404" y="204" font-size="10" fill="#8A8371" text-anchor="end">#INV-0042 &#183; Due Oct 6</text>

    <line x1="106" y1="220" x2="404" y2="220" stroke="#F1EDE3" stroke-width="1.5"/>
    <text x="106" y="238" font-size="11" fill="#16192A">Website audit and fix list</text>
    <text x="404" y="238" font-size="11" fill="#16192A" text-anchor="end">$450.00</text>
    <text x="106" y="256" font-size="11" fill="#16192A">Blog post &#215; 3</text>
    <text x="404" y="256" font-size="11" fill="#16192A" text-anchor="end">$360.00</text>
    <line x1="106" y1="266" x2="404" y2="266" stroke="#F1EDE3" stroke-width="1.5"/>
    <text x="260" y="283" font-size="10.5" fill="#8A8371">Discount (10%)</text>
    <text x="404" y="283" font-size="10.5" fill="#8A8371" text-anchor="end">&#8722;$81.00</text>
    <text x="260" y="299" font-size="10.5" fill="#8A8371">Tax (5%)</text>
    <text x="404" y="299" font-size="10.5" fill="#8A8371" text-anchor="end">$36.45</text>
    <line x1="260" y1="309" x2="404" y2="309" stroke="#16192A" stroke-width="1.2"/>
    <text x="260" y="329" font-size="13" font-weight="800" fill="#16192A">Total</text>
    <text x="404" y="329" font-size="13" font-weight="800" fill="#16192A" text-anchor="end">$765.45</text>
    <rect x="106" y="314" width="118" height="22" rx="11" fill="#E5F7F1"/>
    <text x="165" y="329" font-size="10" font-weight="700" fill="#0B807C" text-anchor="middle">&#10003; Checked by hand</text>
  </g>

  <!-- PDF card -->
  <g>
    <rect x="452" y="160" width="220" height="190" rx="14" fill="#FFFFFF" stroke="#EAE0D2" stroke-width="1.5"/>
    <path d="M538 184h34l16 16v50h-50z" fill="#F1EDE3" stroke="#C9BBA9" stroke-width="1.5"/>
    <path d="M572 184v16h16" fill="none" stroke="#C9BBA9" stroke-width="1.5"/>
    <rect x="532" y="222" width="44" height="18" rx="4" fill="#E0564A"/>
    <text x="554" y="235" font-size="10" font-weight="800" fill="#FFFFFF" text-anchor="middle">PDF</text>
    <rect x="492" y="266" width="140" height="30" rx="15" fill="#16192A"/>
    <text x="562" y="286" font-size="12" font-weight="700" fill="#FFFFFF" text-anchor="middle">Download PDF</text>
    <text x="562" y="318" font-size="11" fill="#8A8371" text-anchor="middle">No account &#183; No watermark</text>
    <text x="562" y="334" font-size="10" fill="#8A8371" text-anchor="middle">built in your browser</text>
  </g>

  <text x="90" y="400" font-size="22" font-weight="700" fill="#16192A">Free Invoice Generator Review</text>
  <text x="90" y="424" font-size="13" fill="#8A8371">What we found testing our own tool</text>
</svg>
