<svg xmlns="http://www.w3.org/2000/svg" viewBox="0 0 760 475" font-family="Inter, -apple-system, sans-serif">
  <rect width="760" height="475" fill="#FDFAF5"/>
  <circle cx="640" cy="80" r="140" fill="rgba(20,184,166,0.06)"/>
  <circle cx="100" cy="400" r="130" fill="rgba(249,115,22,0.06)"/>

  <g>
    <circle cx="52" cy="48" r="22" fill="#FFFFFF" stroke="#EAE0D2"/>
    <g transform="translate(30,26) scale(0.9167)">
      <path d="M 35.52 13.63 A 15.5 15.5 0 1 0 35.52 34.37" fill="none" stroke="#0EA5A0" stroke-width="4.2" stroke-linecap="round"/>
      <line x1="35.52" y1="13.63" x2="24" y2="24" stroke="#C9BBA9" stroke-width="1.2"/>
      <line x1="35.52" y1="34.37" x2="24" y2="24" stroke="#C9BBA9" stroke-width="1.2"/>
      <circle cx="35.52" cy="13.63" r="3.1" fill="#F5A623"/>
      <circle cx="35.52" cy="13.63" r="1.1" fill="#FFFFFF"/>
      <circle cx="35.52" cy="34.37" r="3.1" fill="#14B8A6"/>
      <circle cx="35.52" cy="34.37" r="1.1" fill="#FFFFFF"/>
      <circle cx="24" cy="24" r="2" fill="#16192A"/>
    </g>
    <text x="82" y="55" font-size="18" font-weight="700" fill="#16192A">Contomatix</text>
  </g>

  <ellipse cx="300" cy="420" rx="150" ry="14" fill="rgba(23,20,44,0.06)"/>

  <!-- simplified USA outline with location pins marking hand-verified cities -->
  <path d="M100 200 L180 170 L260 160 L340 165 L420 155 L500 165 L560 185 L590 220 L580 270 L540 300 L470 320 L400 330 L330 325 L260 315 L200 295 L150 260 Z" fill="#E5F7F1" stroke="#0EA5A0" stroke-width="2" opacity="0.6"/>

  <g fill="#F97316">
    <circle cx="180" cy="220" r="7"/>
    <circle cx="260" cy="200" r="7"/>
    <circle cx="360" cy="215" r="7"/>
    <circle cx="450" cy="230" r="7"/>
    <circle cx="510" cy="250" r="7"/>
    <circle cx="300" cy="270" r="7"/>
    <circle cx="230" cy="260" r="7"/>
    <circle cx="400" cy="280" r="7"/>
  </g>
  <g fill="#FFFFFF">
    <circle cx="180" cy="220" r="2.6"/>
    <circle cx="260" cy="200" r="2.6"/>
    <circle cx="360" cy="215" r="2.6"/>
    <circle cx="450" cy="230" r="2.6"/>
    <circle cx="510" cy="250" r="2.6"/>
    <circle cx="300" cy="270" r="2.6"/>
    <circle cx="230" cy="260" r="2.6"/>
    <circle cx="400" cy="280" r="2.6"/>
  </g>

  <!-- floating cards -->
  <g>
    <rect x="440" y="80" width="260" height="52" rx="14" fill="#FFFFFF" stroke="#EAE0D2"/>
    <circle cx="466" cy="106" r="12" fill="#E5F7F1"/>
    <path d="M460 106l4 4 8-8" stroke="#0B807C" stroke-width="2.3" fill="none" stroke-linecap="round" stroke-linejoin="round"/>
    <text x="485" y="102" font-size="12.5" font-weight="700" fill="#16192A">Hand-verified, city by city</text>
    <text x="485" y="119" font-size="11" fill="#8A8371">real addresses checked</text>
  </g>
  <g>
    <rect x="440" y="142" width="260" height="52" rx="14" fill="#FFFFFF" stroke="#EAE0D2"/>
    <circle cx="466" cy="168" r="12" fill="#FDF3E2"/>
    <path d="M466 161v9m0 4v.5" stroke="#F59E0B" stroke-width="2.3" stroke-linecap="round"/>
    <text x="485" y="164" font-size="12.5" font-weight="700" fill="#16192A">Growing directory</text>
    <text x="485" y="181" font-size="11" fill="#8A8371">new cities added regularly</text>
  </g>

  <text x="70" y="425" font-size="17" font-weight="700" fill="#16192A">Best SEO Companies in the USA — Directory</text>
</svg>
