<svg xmlns="http://www.w3.org/2000/svg" viewBox="0 0 760 475" font-family="Inter, -apple-system, sans-serif">
  <rect width="760" height="475" fill="#FDFAF5"/>
  <circle cx="640" cy="80" r="140" fill="rgba(20,184,166,0.06)"/>
  <circle cx="100" cy="400" r="130" fill="rgba(249,115,22,0.06)"/>

  <g>
    <circle cx="52" cy="48" r="22" fill="#FFFFFF" stroke="#EAE0D2"/>
    <g transform="translate(30,26) scale(0.9167)">
      <path d="M 35.52 13.63 A 15.5 15.5 0 1 0 35.52 34.37" fill="none" stroke="#0EA5A0" stroke-width="4.2" stroke-linecap="round"/>
      <line x1="35.52" y1="13.63" x2="24" y2="24" stroke="#C9BBA9" stroke-width="1.2"/>
      <line x1="35.52" y1="34.37" x2="24" y2="24" stroke="#C9BBA9" stroke-width="1.2"/>
      <circle cx="35.52" cy="13.63" r="3.1" fill="#F5A623"/>
      <circle cx="35.52" cy="13.63" r="1.1" fill="#FFFFFF"/>
      <circle cx="35.52" cy="34.37" r="3.1" fill="#14B8A6"/>
      <circle cx="35.52" cy="34.37" r="1.1" fill="#FFFFFF"/>
      <circle cx="24" cy="24" r="2" fill="#16192A"/>
    </g>
    <text x="82" y="55" font-size="18" font-weight="700" fill="#16192A">Contomatix</text>
  </g>

  <rect x="596" y="34" width="150" height="28" rx="14" fill="#E5F7F1" stroke="#0EA5A0"/>
  <text x="671" y="52" font-size="11" font-weight="700" fill="#0B807C" text-anchor="middle">LOCAL SEO GUIDE</text>

  <g>
    <rect x="90" y="110" width="330" height="46" rx="23" fill="#FFFFFF" stroke="#EAE0D2" stroke-width="1.5"/>
    <circle cx="116" cy="133" r="7" fill="none" stroke="#8A8371" stroke-width="2.2"/>
    <line x1="121" y1="138" x2="126" y2="143" stroke="#8A8371" stroke-width="2.2" stroke-linecap="round"/>
    <text x="140" y="139" font-size="14" fill="#16192A">chiropractor near me</text>
  </g>

  <!-- GBP category card -->
  <g>
    <rect x="90" y="178" width="330" height="150" rx="14" fill="#FFFFFF" stroke="#0EA5A0" stroke-width="2"/>
    <circle cx="118" cy="210" r="16" fill="#E5F7F1"/>
    <path d="M110 210h16M118 202v16" stroke="#0B807C" stroke-width="2.4" stroke-linecap="round"/>
    <text x="144" y="206" font-size="13.5" font-weight="700" fill="#16192A">Austin Chiropractic &amp; Rehab</text>
    <text x="144" y="222" font-size="11.5" fill="#8A8371">&#9733;&#9733;&#9733;&#9733;&#9733; (429) &#183; Chiropractor</text>

    <rect x="102" y="242" width="94" height="26" rx="13" fill="#FDF3E2"/>
    <text x="149" y="259" font-size="10.5" font-weight="700" fill="#B5730E" text-anchor="middle">Back pain</text>
    <rect x="204" y="242" width="94" height="26" rx="13" fill="#E5F7F1"/>
    <text x="251" y="259" font-size="10.5" font-weight="700" fill="#0B807C" text-anchor="middle">Sports injury</text>
    <rect x="306" y="242" width="94" height="26" rx="13" fill="#FBE3EC"/>
    <text x="353" y="259" font-size="10.5" font-weight="700" fill="#9D2B55" text-anchor="middle">Neck pain</text>

    <line x1="102" y1="288" x2="408" y2="288" stroke="#F1EDE3" stroke-width="1.5"/>
    <circle cx="118" cy="303" r="7" fill="none" stroke="#C9BBA9" stroke-width="2"/>
    <text x="135" y="307" font-size="11" fill="#8A8371">Categories &amp; condition pages, matched</text>
  </g>

  <!-- appointment card -->
  <g>
    <rect x="452" y="178" width="220" height="150" rx="14" fill="#FFFFFF" stroke="#EAE0D2" stroke-width="1.5"/>
    <rect x="472" y="198" width="180" height="30" rx="8" fill="#F1EDE3"/>
    <text x="562" y="218" font-size="11.5" font-weight="700" fill="#16192A" text-anchor="middle">New Patient Special</text>
    <circle cx="562" cy="260" r="24" fill="#E5F7F1"/>
    <path d="M552 260h20M562 250v20" stroke="#0B807C" stroke-width="2.8" stroke-linecap="round"/>
    <text x="562" y="302" font-size="11.5" fill="#8A8371" text-anchor="middle">Book Online</text>
    <text x="562" y="316" font-size="10" fill="#8A8371" text-anchor="middle">the CTA patients look for</text>
  </g>

  <text x="90" y="400" font-size="22" font-weight="700" fill="#16192A">Chiropractor SEO</text>
  <text x="90" y="424" font-size="13" fill="#8A8371">Get found by local patients</text>
</svg>
