<svg xmlns="http://www.w3.org/2000/svg" viewBox="0 0 760 475" font-family="Inter, -apple-system, sans-serif">
  <rect width="760" height="475" fill="#FDFAF5"/>
  <circle cx="640" cy="80" r="140" fill="rgba(20,184,166,0.06)"/>
  <circle cx="100" cy="400" r="130" fill="rgba(249,115,22,0.06)"/>

  <g>
    <circle cx="52" cy="48" r="22" fill="#FFFFFF" stroke="#EAE0D2"/>
    <g transform="translate(30,26) scale(0.9167)">
      <path d="M 35.52 13.63 A 15.5 15.5 0 1 0 35.52 34.37" fill="none" stroke="#0EA5A0" stroke-width="4.2" stroke-linecap="round"/>
      <line x1="35.52" y1="13.63" x2="24" y2="24" stroke="#C9BBA9" stroke-width="1.2"/>
      <line x1="35.52" y1="34.37" x2="24" y2="24" stroke="#C9BBA9" stroke-width="1.2"/>
      <circle cx="35.52" cy="13.63" r="3.1" fill="#F5A623"/>
      <circle cx="35.52" cy="13.63" r="1.1" fill="#FFFFFF"/>
      <circle cx="35.52" cy="34.37" r="3.1" fill="#14B8A6"/>
      <circle cx="35.52" cy="34.37" r="1.1" fill="#FFFFFF"/>
      <circle cx="24" cy="24" r="2" fill="#16192A"/>
    </g>
    <text x="82" y="55" font-size="18" font-weight="700" fill="#16192A">Contomatix</text>
  </g>

  <rect x="596" y="34" width="150" height="28" rx="14" fill="#E5F7F1" stroke="#0EA5A0"/>
  <text x="671" y="52" font-size="10.5" font-weight="700" fill="#0B807C" text-anchor="middle">SEO AUDIT GUIDE</text>

  <g>
    <rect x="90" y="110" width="330" height="46" rx="23" fill="#FFFFFF" stroke="#EAE0D2" stroke-width="1.5"/>
    <circle cx="116" cy="133" r="7" fill="none" stroke="#8A8371" stroke-width="2.2"/>
    <line x1="121" y1="138" x2="126" y2="143" stroke="#8A8371" stroke-width="2.2" stroke-linecap="round"/>
    <text x="140" y="139" font-size="14" fill="#16192A">website seo audit</text>
  </g>

  <!-- code card -->
  <g>
    <rect x="90" y="178" width="330" height="170" rx="14" fill="#FFFFFF" stroke="#0EA5A0" stroke-width="2"/>
    <rect x="90" y="178" width="330" height="26" rx="14" fill="#F1EDE3"/>
    <rect x="90" y="196" width="330" height="8" fill="#F1EDE3"/>
    <text x="106" y="196" font-size="11" font-weight="700" fill="#8A8371">AUDIT, IN RUNNING ORDER</text>
    <text x="106" y="228" font-family="Consolas, monospace" font-size="12.5" fill="#16192A">1. Indexing gap</text>
    <text x="106" y="248" font-family="Consolas, monospace" font-size="12.5" fill="#16192A">2. robots, sitemap, canonical</text>
    <text x="106" y="268" font-family="Consolas, monospace" font-size="12.5" fill="#16192A">3. Core Web Vitals</text>
    <text x="106" y="288" font-family="Consolas, monospace" font-size="12.5" fill="#B5730E">4. Titles + intent (pos 5-20)</text>
    <text x="106" y="308" font-family="Consolas, monospace" font-size="12.5" fill="#B5730E">5. Thin + duplicate content</text>
    <text x="106" y="332" font-family="Consolas, monospace" font-size="12.5" fill="#0B807C">6. Referring domains</text>
  </g>
  <g>
    <rect x="452" y="178" width="220" height="170" rx="14" fill="#FFFFFF" stroke="#EAE0D2" stroke-width="1.5"/>
    <text x="562" y="210" font-size="12" font-weight="700" fill="#8A8371" text-anchor="middle">GOOD CORE WEB VITALS</text>
    <text x="562" y="256" font-size="38" font-weight="800" fill="#16192A" text-anchor="middle">2.5s</text>
    <line x1="490" y1="276" x2="634" y2="276" stroke="#F1EDE3" stroke-width="1.5"/>
    <text x="562" y="302" font-size="15" font-weight="700" fill="#0B807C" text-anchor="middle">LCP &#183; INP 200ms &#183; CLS 0.1</text>
    <text x="562" y="322" font-size="10.5" fill="#8A8371" text-anchor="middle">at the 75th percentile of real visits</text>
  </g>

  <text x="90" y="400" font-size="22" font-weight="700" fill="#16192A">The Website SEO Audit</text>
  <text x="90" y="424" font-size="13" fill="#8A8371">Six layers, free tools, one priority list</text>
</svg>
