<svg xmlns="http://www.w3.org/2000/svg" viewBox="0 0 760 475" font-family="Inter, -apple-system, sans-serif">
  <rect width="760" height="475" fill="#FDFAF5"/>
  <circle cx="640" cy="80" r="140" fill="rgba(20,184,166,0.06)"/>
  <circle cx="100" cy="400" r="130" fill="rgba(249,115,22,0.06)"/>

  <g>
    <circle cx="52" cy="48" r="22" fill="#FFFFFF" stroke="#EAE0D2"/>
    <g transform="translate(30,26) scale(0.9167)">
      <path d="M 35.52 13.63 A 15.5 15.5 0 1 0 35.52 34.37" fill="none" stroke="#0EA5A0" stroke-width="4.2" stroke-linecap="round"/>
      <line x1="35.52" y1="13.63" x2="24" y2="24" stroke="#C9BBA9" stroke-width="1.2"/>
      <line x1="35.52" y1="34.37" x2="24" y2="24" stroke="#C9BBA9" stroke-width="1.2"/>
      <circle cx="35.52" cy="13.63" r="3.1" fill="#F5A623"/>
      <circle cx="35.52" cy="13.63" r="1.1" fill="#FFFFFF"/>
      <circle cx="35.52" cy="34.37" r="3.1" fill="#14B8A6"/>
      <circle cx="35.52" cy="34.37" r="1.1" fill="#FFFFFF"/>
      <circle cx="24" cy="24" r="2" fill="#16192A"/>
    </g>
    <text x="82" y="55" font-size="18" font-weight="700" fill="#16192A">Contomatix</text>
  </g>

  <!-- Lake Conroe water band -->
  <rect x="0" y="360" width="760" height="115" fill="#E5F7F1"/>
  <path d="M0 360 C 90 348, 180 372, 270 360 C 360 348, 450 372, 540 360 C 630 348, 700 366, 760 358 L 760 475 L 0 475 Z" fill="#CFEFE8"/>
  <g stroke="#0EA5A0" stroke-width="1.4" opacity="0.4" fill="none">
    <path d="M20 400 q20 -8 40 0 q20 8 40 0"/>
    <path d="M140 415 q20 -8 40 0 q20 8 40 0"/>
    <path d="M40 435 q20 -8 40 0 q20 8 40 0"/>
    <path d="M170 445 q20 -8 40 0 q20 8 40 0"/>
  </g>

  <!-- courthouse-square silhouette on the far shore -->
  <g opacity="0.9">
    <rect x="330" y="300" width="46" height="70" fill="#FFFFFF" stroke="#16192A" stroke-width="1.5"/>
    <polygon points="322,300 384,300 353,268" fill="#0B807C"/>
    <rect x="349" y="278" width="8" height="20" fill="#FDFAF5" stroke="#16192A" stroke-width="1.2"/>
    <g stroke="#EAE0D2" stroke-width="1">
      <line x1="338" y1="316" x2="368" y2="316"/>
      <line x1="338" y1="332" x2="368" y2="332"/>
      <line x1="338" y1="348" x2="368" y2="348"/>
    </g>
    <rect x="336" y="356" width="10" height="14" fill="#16192A"/>
    <circle cx="316" cy="366" r="8" fill="#0EA5A0" opacity="0.5"/>
    <rect x="314" y="372" width="4" height="8" fill="#8A8371"/>
    <circle cx="390" cy="366" r="8" fill="#0EA5A0" opacity="0.5"/>
    <rect x="388" y="372" width="4" height="8" fill="#8A8371"/>
  </g>

  <!-- oil derrick silhouette, nod to the historic Conroe Oilfield -->
  <g stroke="#16192A" stroke-width="2.4" fill="none" stroke-linecap="round" stroke-linejoin="round" opacity="0.85">
    <line x1="150" y1="370" x2="128" y2="270"/>
    <line x1="106" y1="370" x2="128" y2="270"/>
    <line x1="112" y1="345" x2="144" y2="325"/>
    <line x1="112" y1="320" x2="144" y2="300"/>
    <line x1="116" y1="298" x2="140" y2="284"/>
    <line x1="128" y1="270" x2="128" y2="252"/>
  </g>
  <rect x="118" y="366" width="42" height="8" rx="2" fill="#16192A" opacity="0.85"/>
  <circle cx="128" cy="248" r="3.2" fill="#F5A623"/>

  <!-- ranked list card -->
  <g>
    <rect x="150" y="150" width="200" height="26" rx="6" fill="#FFFFFF" stroke="#EAE0D2"/>
    <circle cx="166" cy="163" r="9" fill="#0EA5A0"/>
    <text x="166" y="167" font-size="10" font-weight="700" fill="#FFFFFF" text-anchor="middle">1</text>
    <rect x="184" y="157" width="140" height="10" rx="5" fill="#F1EDE3"/>
  </g>

  <!-- floating cards -->
  <g>
    <rect x="440" y="180" width="260" height="52" rx="14" fill="#FFFFFF" stroke="#EAE0D2"/>
    <circle cx="466" cy="206" r="12" fill="#E5F7F1"/>
    <path d="M460 206l4 4 8-8" stroke="#0B807C" stroke-width="2.3" fill="none" stroke-linecap="round" stroke-linejoin="round"/>
    <text x="485" y="202" font-size="12.5" font-weight="700" fill="#16192A">Hand-checked, not scraped</text>
    <text x="485" y="219" font-size="11" fill="#8A8371">real Conroe addresses verified</text>
  </g>
  <g>
    <rect x="440" y="242" width="260" height="52" rx="14" fill="#FFFFFF" stroke="#EAE0D2"/>
    <circle cx="466" cy="268" r="12" fill="#FDF3E2"/>
    <path d="M466 261v9m0 4v.5" stroke="#F59E0B" stroke-width="2.3" stroke-linecap="round"/>
    <text x="485" y="264" font-size="12.5" font-weight="700" fill="#16192A">Montgomery County, Texas</text>
    <text x="485" y="281" font-size="11" fill="#8A8371">Lake Conroe &amp; the historic Conroe Oilfield</text>
  </g>

  <text x="60" y="425" font-size="18" font-weight="700" fill="#16192A">Top SEO Companies in Conroe, TX</text>
</svg>
