<svg xmlns="http://www.w3.org/2000/svg" viewBox="0 0 760 475" font-family="Inter, -apple-system, sans-serif">
  <rect width="760" height="475" fill="#FDFAF5"/>
  <circle cx="640" cy="80" r="140" fill="rgba(20,184,166,0.06)"/>
  <circle cx="100" cy="400" r="130" fill="rgba(249,115,22,0.06)"/>

  <g>
    <circle cx="52" cy="48" r="22" fill="#FFFFFF" stroke="#EAE0D2"/>
    <g transform="translate(30,26) scale(0.9167)">
      <path d="M 35.52 13.63 A 15.5 15.5 0 1 0 35.52 34.37" fill="none" stroke="#0EA5A0" stroke-width="4.2" stroke-linecap="round"/>
      <line x1="35.52" y1="13.63" x2="24" y2="24" stroke="#C9BBA9" stroke-width="1.2"/>
      <line x1="35.52" y1="34.37" x2="24" y2="24" stroke="#C9BBA9" stroke-width="1.2"/>
      <circle cx="35.52" cy="13.63" r="3.1" fill="#F5A623"/>
      <circle cx="35.52" cy="13.63" r="1.1" fill="#FFFFFF"/>
      <circle cx="35.52" cy="34.37" r="3.1" fill="#14B8A6"/>
      <circle cx="35.52" cy="34.37" r="1.1" fill="#FFFFFF"/>
      <circle cx="24" cy="24" r="2" fill="#16192A"/>
    </g>
    <text x="82" y="55" font-size="18" font-weight="700" fill="#16192A">Contomatix</text>
  </g>

  <rect x="596" y="34" width="150" height="28" rx="14" fill="#E5F7F1" stroke="#0EA5A0"/>
  <text x="671" y="52" font-size="11" font-weight="700" fill="#0B807C" text-anchor="middle">LOCAL SEO GUIDE</text>

  <g>
    <rect x="90" y="110" width="330" height="46" rx="23" fill="#FFFFFF" stroke="#EAE0D2" stroke-width="1.5"/>
    <circle cx="116" cy="133" r="7" fill="none" stroke="#8A8371" stroke-width="2.2"/>
    <line x1="121" y1="138" x2="126" y2="143" stroke="#8A8371" stroke-width="2.2" stroke-linecap="round"/>
    <text x="140" y="139" font-size="14" fill="#16192A">seo experts in leeds</text>
  </g>

  <!-- verified list card -->
  <g>
    <rect x="90" y="178" width="330" height="170" rx="14" fill="#FFFFFF" stroke="#0EA5A0" stroke-width="2"/>
    <text x="108" y="204" font-size="12" font-weight="700" fill="#8A8371">VERIFIED LEEDS BASE</text>
    <g><circle cx="116" cy="230" r="11" fill="#E5F7F1"/><path d="M116 223a5 5 0 0 1 5 5c0 4-5 9-5 9s-5-5-5-9a5 5 0 0 1 5-5z" fill="#0B807C"/><text x="136" y="228" font-size="13" font-weight="700" fill="#16192A">Freelance consultant</text><text x="136" y="243" font-size="11" fill="#8A8371">Horsforth &#183; LS18</text><rect x="344" y="220" width="64" height="20" rx="10" fill="#E5F7F1"/><text x="376" y="234" font-size="10" font-weight="700" fill="#0B807C" text-anchor="middle">&#10003; Live</text></g>
    <g><circle cx="116" cy="272" r="11" fill="#FDF3E2"/><path d="M116 265a5 5 0 0 1 5 5c0 4-5 9-5 9s-5-5-5-9a5 5 0 0 1 5-5z" fill="#B5730E"/><text x="136" y="270" font-size="13" font-weight="700" fill="#16192A">SEO agency</text><text x="136" y="285" font-size="11" fill="#8A8371">The Calls &#183; LS2</text><rect x="344" y="262" width="64" height="20" rx="10" fill="#E5F7F1"/><text x="376" y="276" font-size="10" font-weight="700" fill="#0B807C" text-anchor="middle">&#10003; Live</text></g>
    <g><circle cx="116" cy="314" r="11" fill="#FBE3EC"/><path d="M116 307a5 5 0 0 1 5 5c0 4-5 9-5 9s-5-5-5-9a5 5 0 0 1 5-5z" fill="#9D2B55"/><text x="136" y="312" font-size="13" font-weight="700" fill="#16192A">International team</text><text x="136" y="327" font-size="11" fill="#8A8371">Park Lane &#183; LS3</text><rect x="344" y="304" width="64" height="20" rx="10" fill="#E5F7F1"/><text x="376" y="318" font-size="10" font-weight="700" fill="#0B807C" text-anchor="middle">&#10003; Live</text></g>
  </g>
  <g>
    <rect x="452" y="178" width="220" height="170" rx="14" fill="#FFFFFF" stroke="#EAE0D2" stroke-width="1.5"/>
    <text x="562" y="214" font-size="12" font-weight="700" fill="#8A8371" text-anchor="middle">CANDIDATES CHECKED</text>
    <text x="562" y="262" font-size="44" font-weight="800" fill="#16192A" text-anchor="middle">20+</text>
    <line x1="490" y1="280" x2="634" y2="280" stroke="#F1EDE3" stroke-width="1.5"/>
    <text x="562" y="306" font-size="15" font-weight="700" fill="#0B807C" text-anchor="middle">9 made the list</text>
    <text x="562" y="326" font-size="10.5" fill="#8A8371" text-anchor="middle">address, live site, clear fit</text>
  </g>

  <text x="90" y="400" font-size="22" font-weight="700" fill="#16192A">Top SEO Experts in Leeds</text>
  <text x="90" y="424" font-size="13" fill="#8A8371">Verified local consultants and agencies, 2026</text>
</svg>
